<svg width="60" height="60" viewBox="0 0 60 60" fill="none" xmlns="http://www.w3.org/2000/svg">
<rect width="60" height="60" fill="#191B20"/>
<path d="M30 17.4C26.6583 17.4 23.4534 18.7275 21.0905 21.0905C18.7275 23.4534 17.4 26.6583 17.4 30C17.4 33.3417 18.7275 36.5466 21.0905 38.9095C23.4534 41.2725 26.6583 42.6 30 42.6C33.3417 42.6 36.5466 41.2725 38.9095 38.9095C41.2725 36.5466 42.6 33.3417 42.6 30C42.6 26.6583 41.2725 23.4534 38.9095 21.0905C36.5466 18.7275 33.3417 17.4 30 17.4ZM14.25 30C14.25 21.3013 21.3013 14.25 30 14.25C38.6987 14.25 45.75 21.3013 45.75 30C45.75 38.6987 38.6987 45.75 30 45.75C21.3013 45.75 14.25 38.6987 14.25 30ZM30 20.55C30.4177 20.55 30.8183 20.7159 31.1137 21.0113C31.4091 21.3067 31.575 21.7073 31.575 22.125V29.348L35.8385 33.6115C36.1254 33.9085 36.2842 34.3064 36.2806 34.7193C36.277 35.1323 36.1114 35.5273 35.8193 35.8193C35.5273 36.1114 35.1323 36.277 34.7193 36.2806C34.3064 36.2842 33.9085 36.1254 33.6115 35.8385L28.8865 31.1135C28.5911 30.8182 28.4251 30.4177 28.425 30V22.125C28.425 21.7073 28.5909 21.3067 28.8863 21.0113C29.1817 20.7159 29.5823 20.55 30 20.55Z" fill="white"/>
</svg>
