<svg width="61" height="61" viewBox="0 0 61 61" fill="none" xmlns="http://www.w3.org/2000/svg">
<rect width="61" height="61" fill="#191B20"/>
<path d="M30.5 45.0833C32.4155 45.0857 34.3125 44.7095 36.0821 43.9765C37.8518 43.2435 39.4591 42.168 40.8119 40.8118C42.168 39.4591 43.2435 37.8518 43.9765 36.0821C44.7096 34.3125 45.0857 32.4154 45.0833 30.5C45.0857 28.5845 44.7096 26.6875 43.9765 24.9178C43.2435 23.1482 42.168 21.5408 40.8119 20.1881C39.4591 18.832 37.8518 17.7565 36.0821 17.0235C34.3125 16.2904 32.4155 15.9143 30.5 15.9166C28.5845 15.9143 26.6875 16.2904 24.9179 17.0235C23.1482 17.7565 21.5409 18.832 20.1881 20.1881C18.832 21.5408 17.7565 23.1482 17.0235 24.9178C16.2904 26.6875 15.9143 28.5845 15.9167 30.5C15.9143 32.4154 16.2904 34.3125 17.0235 36.0821C17.7565 37.8518 18.832 39.4591 20.1881 40.8118C21.5409 42.168 23.1482 43.2435 24.9179 43.9765C26.6875 44.7095 28.5845 45.0857 30.5 45.0833Z" stroke="white" stroke-width="3" stroke-linejoin="round"/>
<path fill-rule="evenodd" clip-rule="evenodd" d="M30.5 39.9791C30.9835 39.9791 31.4471 39.787 31.789 39.4452C32.1309 39.1033 32.3229 38.6396 32.3229 38.1562C32.3229 37.6727 32.1309 37.209 31.789 36.8672C31.4471 36.5253 30.9835 36.3333 30.5 36.3333C30.0165 36.3333 29.5529 36.5253 29.211 36.8672C28.8692 37.209 28.6771 37.6727 28.6771 38.1562C28.6771 38.6396 28.8692 39.1033 29.211 39.4452C29.5529 39.787 30.0165 39.9791 30.5 39.9791Z" fill="white"/>
<path d="M30.5 21.75V33.4167" stroke="white" stroke-width="3" stroke-linecap="round" stroke-linejoin="round"/>
</svg>
