<svg width="60" height="60" viewBox="0 0 60 60" fill="none" xmlns="http://www.w3.org/2000/svg">
<rect width="60" height="60" fill="#191B20"/>
<path d="M45.624 21.5246C45.4643 21.1398 45.1585 20.8341 44.7738 20.6743C44.5845 20.5936 44.3812 20.5508 44.1755 20.5483H36.3027C35.8851 20.5483 35.4847 20.7142 35.1894 21.0095C34.8941 21.3048 34.7282 21.7053 34.7282 22.1229C34.7282 22.5405 34.8941 22.941 35.1894 23.2363C35.4847 23.5315 35.8851 23.6974 36.3027 23.6974H40.3808L31.5791 32.4991L26.3989 27.3031C26.2525 27.1556 26.0783 27.0384 25.8865 26.9585C25.6946 26.8785 25.4888 26.8374 25.2809 26.8374C25.0731 26.8374 24.8673 26.8785 24.6754 26.9585C24.4835 27.0384 24.3094 27.1556 24.163 27.3031L14.7157 36.7504C14.5682 36.8968 14.451 37.0709 14.3711 37.2628C14.2912 37.4547 14.25 37.6605 14.25 37.8683C14.25 38.0762 14.2912 38.282 14.3711 38.4739C14.451 38.6657 14.5682 38.8399 14.7157 38.9862C14.8621 39.1338 15.0363 39.251 15.2281 39.3309C15.42 39.4108 15.6258 39.452 15.8337 39.452C16.0415 39.452 16.2473 39.4108 16.4392 39.3309C16.6311 39.251 16.8052 39.1338 16.9516 38.9862L25.2809 30.6412L30.4612 35.8372C30.6076 35.9847 30.7817 36.1019 30.9736 36.1818C31.1654 36.2617 31.3713 36.3029 31.5791 36.3029C31.787 36.3029 31.9928 36.2617 32.1846 36.1818C32.3765 36.1019 32.5507 35.9847 32.697 35.8372L42.6009 25.9175V29.9956C42.6009 30.4132 42.7668 30.8137 43.0621 31.109C43.3574 31.4043 43.7579 31.5701 44.1755 31.5701C44.5931 31.5701 44.9935 31.4043 45.2888 31.109C45.5841 30.8137 45.75 30.4132 45.75 29.9956V22.1229C45.7475 21.9171 45.7047 21.7139 45.624 21.5246Z" fill="white"/>
</svg>
