<svg width="61" height="61" viewBox="0 0 61 61" fill="none" xmlns="http://www.w3.org/2000/svg">
<rect width="61" height="61" fill="#191B20"/>
<path d="M47.5333 22.0333C47.3642 21.6261 47.0406 21.3025 46.6333 21.1333C46.433 21.0479 46.2178 21.0026 46 21H37.6667C37.2246 21 36.8007 21.1756 36.4882 21.4882C36.1756 21.8007 36 22.2246 36 22.6667C36 23.1087 36.1756 23.5326 36.4882 23.8452C36.8007 24.1577 37.2246 24.3333 37.6667 24.3333H41.9833L32.6667 33.65L27.1833 28.15C27.0284 27.9938 26.8441 27.8698 26.641 27.7852C26.4379 27.7006 26.22 27.657 26 27.657C25.78 27.657 25.5621 27.7006 25.359 27.7852C25.1559 27.8698 24.9716 27.9938 24.8167 28.15L14.8167 38.15C14.6605 38.3049 14.5365 38.4893 14.4518 38.6924C14.3672 38.8955 14.3237 39.1133 14.3237 39.3333C14.3237 39.5534 14.3672 39.7712 14.4518 39.9743C14.5365 40.1774 14.6605 40.3617 14.8167 40.5167C14.9716 40.6729 15.1559 40.7969 15.359 40.8815C15.5621 40.9661 15.78 41.0097 16 41.0097C16.22 41.0097 16.4379 40.9661 16.641 40.8815C16.8441 40.7969 17.0284 40.6729 17.1833 40.5167L26 31.6833L31.4833 37.1833C31.6383 37.3395 31.8226 37.4635 32.0257 37.5482C32.2288 37.6328 32.4466 37.6763 32.6667 37.6763C32.8867 37.6763 33.1045 37.6328 33.3076 37.5482C33.5107 37.4635 33.6951 37.3395 33.85 37.1833L44.3333 26.6833V31C44.3333 31.442 44.5089 31.866 44.8215 32.1785C45.134 32.4911 45.558 32.6667 46 32.6667C46.442 32.6667 46.8659 32.4911 47.1785 32.1785C47.4911 31.866 47.6667 31.442 47.6667 31V22.6667C47.664 22.4489 47.6187 22.2337 47.5333 22.0333Z" fill="white"/>
</svg>
