<svg width="61" height="61" viewBox="0 0 61 61" fill="none" xmlns="http://www.w3.org/2000/svg">
<rect width="61" height="61" fill="#191B20"/>
<path fill-rule="evenodd" clip-rule="evenodd" d="M31 17.8959C27.5246 17.8959 24.1915 19.2765 21.734 21.734C19.2765 24.1915 17.8959 27.5246 17.8959 31C17.8959 34.4755 19.2765 37.8086 21.734 40.2661C24.1915 42.7236 27.5246 44.1042 31 44.1042C34.4755 44.1042 37.8086 42.7236 40.2661 40.2661C42.7236 37.8086 44.1042 34.4755 44.1042 31C44.1042 27.5246 42.7236 24.1915 40.2661 21.734C37.8086 19.2765 34.4755 17.8959 31 17.8959ZM15.7709 31C15.7709 22.5893 22.5893 15.7709 31 15.7709C39.4108 15.7709 46.2292 22.5893 46.2292 31C46.2292 39.4108 39.4108 46.2292 31 46.2292C22.5893 46.2292 15.7709 39.4108 15.7709 31ZM31 21.4375C31.2818 21.4375 31.5521 21.5495 31.7513 21.7487C31.9506 21.948 32.0625 22.2182 32.0625 22.5V22.9491C34.3717 23.3628 36.3125 25.0982 36.3125 27.4584C36.3125 27.7402 36.2006 28.0104 36.0013 28.2097C35.8021 28.4089 35.5318 28.5209 35.25 28.5209C34.9682 28.5209 34.698 28.4089 34.4987 28.2097C34.2995 28.0104 34.1875 27.7402 34.1875 27.4584C34.1875 26.4979 33.3885 25.4793 32.0625 25.1166V30.0325C34.3717 30.4461 36.3125 32.1815 36.3125 34.5417C36.3125 36.9019 34.3717 38.6373 32.0625 39.051V39.5C32.0625 39.7818 31.9506 40.0521 31.7513 40.2513C31.5521 40.4506 31.2818 40.5625 31 40.5625C30.7182 40.5625 30.448 40.4506 30.2487 40.2513C30.0495 40.0521 29.9375 39.7818 29.9375 39.5V39.051C27.6284 38.6373 25.6875 36.9019 25.6875 34.5417C25.6875 34.2599 25.7995 33.9897 25.9987 33.7904C26.198 33.5911 26.4682 33.4792 26.75 33.4792C27.0318 33.4792 27.3021 33.5911 27.5013 33.7904C27.7006 33.9897 27.8125 34.2599 27.8125 34.5417C27.8125 35.5022 28.6115 36.5208 29.9375 36.882V31.9676C27.6284 31.554 25.6875 29.8185 25.6875 27.4584C25.6875 25.0982 27.6284 23.3628 29.9375 22.9491V22.5C29.9375 22.2182 30.0495 21.948 30.2487 21.7487C30.448 21.5495 30.7182 21.4375 31 21.4375ZM29.9375 25.1166C28.6115 25.4793 27.8125 26.4979 27.8125 27.4584C27.8125 28.4189 28.6115 29.4375 29.9375 29.7987V25.1166ZM32.0625 32.2V36.8835C33.3885 36.5208 34.1875 35.5036 34.1875 34.5417C34.1875 33.5812 33.3885 32.5612 32.0625 32.2Z" fill="white"/>
</svg>
