<svg width="61" height="61" viewBox="0 0 61 61" fill="none" xmlns="http://www.w3.org/2000/svg">
<rect width="61" height="61" fill="#191B20"/>
<path d="M30.6683 21.8166L33.145 19.34C35.9333 16.5516 39.5817 15.395 43.445 15.2066C44.9483 15.1333 45.6983 15.0966 46.3017 15.6983C46.9033 16.3016 46.8683 17.0516 46.7933 18.555C46.605 22.4183 45.4483 26.0666 42.66 28.855L40.185 31.3333C38.145 33.3716 37.565 33.9516 37.9933 36.1633C38.4167 37.8533 38.825 39.4883 37.5967 40.7166C36.1067 42.2083 34.7467 42.2083 33.2567 40.7166L21.285 28.745C19.7933 27.255 19.7933 25.895 21.285 24.405C22.5133 23.1766 24.1483 23.585 25.8383 24.0083C28.05 24.4366 28.63 23.8566 30.6683 21.8166Z" stroke="white" stroke-width="2" stroke-linejoin="round"/>
<path d="M39.3267 22.6666H39.3417" stroke="white" stroke-width="3" stroke-linecap="round" stroke-linejoin="round"/>
<path d="M15.1666 46.8333L23.5 38.5M25.1666 46.8333L28.5 43.5M15.1666 36.8333L18.5 33.5" stroke="white" stroke-width="2" stroke-linecap="round"/>
</svg>
