<svg width="384" height="850" viewBox="0 0 384 850" fill="none" xmlns="http://www.w3.org/2000/svg">
<path d="M0.502136 599.5L0.502138 548.5L319.247 548.5L319.247 599.5L0.502136 599.5Z" fill="url(#paint0_linear_365_22)" stroke="white"/>
<path d="M0.50116 549.5L0.501162 498.5L256.404 498.5L256.404 549.5L0.50116 549.5Z" fill="url(#paint1_linear_365_22)" stroke="white"/>
<path d="M0.50116 749.5L0.501162 698.5L256.404 698.5L256.404 749.5L0.50116 749.5Z" fill="url(#paint2_linear_365_22)" stroke="white"/>
<path d="M0.50116 799.5L0.501162 748.5L190.736 748.5L190.736 799.5L0.50116 799.5Z" fill="url(#paint3_linear_365_22)" stroke="white"/>
<path d="M0.50116 448.5L0.501162 499.5L190.736 499.5L190.736 448.5L0.50116 448.5Z" fill="url(#paint4_linear_365_22)" stroke="white"/>
<path d="M0.500183 849.5L0.500185 798.5L264.169 798.5L264.169 849.5L0.500183 849.5Z" fill="url(#paint5_linear_365_22)" stroke="white"/>
<path d="M0.500183 398.5L0.500185 449.5L264.169 449.5L264.169 398.5L0.500183 398.5Z" fill="url(#paint6_linear_365_22)" stroke="white"/>
<path d="M0.50116 649.5L0.501163 598.5L383.501 598.5L383.501 649.5L0.50116 649.5Z" fill="url(#paint7_linear_365_22)" stroke="white"/>
<path d="M0.502136 699.5L0.502138 648.5L319.247 648.5L319.247 699.5L0.502136 699.5Z" fill="url(#paint8_linear_365_22)" stroke="white"/>
<path d="M0.502136 201.5L0.502138 150.5L319.247 150.5L319.247 201.5L0.502136 201.5Z" fill="url(#paint9_linear_365_22)" stroke="white"/>
<path d="M0.50116 151.5L0.501162 100.5L256.404 100.5L256.404 151.5L0.50116 151.5Z" fill="url(#paint10_linear_365_22)" stroke="white"/>
<path d="M0.50116 351.5L0.501162 300.5L256.404 300.5L256.404 351.5L0.50116 351.5Z" fill="url(#paint11_linear_365_22)" stroke="white"/>
<path d="M0.50116 401.5L0.501162 350.5L190.736 350.5L190.736 401.5L0.50116 401.5Z" fill="url(#paint12_linear_365_22)" stroke="white"/>
<path d="M0.50116 50.5L0.501162 101.5L190.736 101.5L190.736 50.5L0.50116 50.5Z" fill="url(#paint13_linear_365_22)" stroke="white"/>
<path d="M0.500183 451.5L0.500185 400.5L264.169 400.5L264.169 451.5L0.500183 451.5Z" fill="url(#paint14_linear_365_22)" stroke="white"/>
<path d="M0.500183 0.500018L0.500185 51.5L264.169 51.5L264.169 0.5L0.500183 0.500018Z" fill="url(#paint15_linear_365_22)" stroke="white"/>
<path d="M0.50116 251.5L0.501163 200.5L383.501 200.5L383.501 251.5L0.50116 251.5Z" fill="url(#paint16_linear_365_22)" stroke="white"/>
<path d="M0.502136 301.5L0.502138 250.5L319.247 250.5L319.247 301.5L0.502136 301.5Z" fill="url(#paint17_linear_365_22)" stroke="white"/>
<defs>
<linearGradient id="paint0_linear_365_22" x1="1.00235" y1="574" x2="318.747" y2="574" gradientUnits="userSpaceOnUse">
<stop stop-color="#0057FF"/>
<stop offset="0.317308" stop-color="#00CFFF"/>
<stop offset="0.625" stop-color="#D9FF70"/>
<stop offset="1" stop-color="white"/>
</linearGradient>
<linearGradient id="paint1_linear_365_22" x1="1.00149" y1="524" x2="255.903" y2="524" gradientUnits="userSpaceOnUse">
<stop stop-color="#0057FF"/>
<stop offset="0.317308" stop-color="#00CFFF"/>
<stop offset="0.625" stop-color="#D9FF70"/>
<stop offset="1" stop-color="white"/>
</linearGradient>
<linearGradient id="paint2_linear_365_22" x1="1.00149" y1="724" x2="255.903" y2="724" gradientUnits="userSpaceOnUse">
<stop stop-color="#0057FF"/>
<stop offset="0.317308" stop-color="#00CFFF"/>
<stop offset="0.625" stop-color="#D9FF70"/>
<stop offset="1" stop-color="white"/>
</linearGradient>
<linearGradient id="paint3_linear_365_22" x1="1.00081" y1="774" x2="190.236" y2="774" gradientUnits="userSpaceOnUse">
<stop stop-color="#0057FF"/>
<stop offset="0.317308" stop-color="#00CFFF"/>
<stop offset="0.625" stop-color="#D9FF70"/>
<stop offset="1" stop-color="white"/>
</linearGradient>
<linearGradient id="paint4_linear_365_22" x1="1.00081" y1="474" x2="190.236" y2="474" gradientUnits="userSpaceOnUse">
<stop stop-color="#0057FF"/>
<stop offset="0.317308" stop-color="#00CFFF"/>
<stop offset="0.625" stop-color="#D9FF70"/>
<stop offset="1" stop-color="white"/>
</linearGradient>
<linearGradient id="paint5_linear_365_22" x1="1.00003" y1="824" x2="263.669" y2="824" gradientUnits="userSpaceOnUse">
<stop stop-color="#0057FF"/>
<stop offset="0.317308" stop-color="#00CFFF"/>
<stop offset="0.625" stop-color="#D9FF70"/>
<stop offset="1" stop-color="white"/>
</linearGradient>
<linearGradient id="paint6_linear_365_22" x1="1.00003" y1="424" x2="263.669" y2="424" gradientUnits="userSpaceOnUse">
<stop stop-color="#0057FF"/>
<stop offset="0.317308" stop-color="#00CFFF"/>
<stop offset="0.625" stop-color="#D9FF70"/>
<stop offset="1" stop-color="white"/>
</linearGradient>
<linearGradient id="paint7_linear_365_22" x1="1.0012" y1="624" x2="383.001" y2="624" gradientUnits="userSpaceOnUse">
<stop stop-color="#0057FF"/>
<stop offset="0.317308" stop-color="#00CFFF"/>
<stop offset="0.625" stop-color="#D9FF70"/>
<stop offset="1" stop-color="white"/>
</linearGradient>
<linearGradient id="paint8_linear_365_22" x1="1.00235" y1="674" x2="318.747" y2="674" gradientUnits="userSpaceOnUse">
<stop stop-color="#0057FF"/>
<stop offset="0.317308" stop-color="#00CFFF"/>
<stop offset="0.625" stop-color="#D9FF70"/>
<stop offset="1" stop-color="white"/>
</linearGradient>
<linearGradient id="paint9_linear_365_22" x1="1.00235" y1="176" x2="318.747" y2="176" gradientUnits="userSpaceOnUse">
<stop stop-color="#0057FF"/>
<stop offset="0.317308" stop-color="#00CFFF"/>
<stop offset="0.625" stop-color="#D9FF70"/>
<stop offset="1" stop-color="white"/>
</linearGradient>
<linearGradient id="paint10_linear_365_22" x1="1.00149" y1="126" x2="255.903" y2="126" gradientUnits="userSpaceOnUse">
<stop stop-color="#0057FF"/>
<stop offset="0.317308" stop-color="#00CFFF"/>
<stop offset="0.625" stop-color="#D9FF70"/>
<stop offset="1" stop-color="white"/>
</linearGradient>
<linearGradient id="paint11_linear_365_22" x1="1.00149" y1="326" x2="255.903" y2="326" gradientUnits="userSpaceOnUse">
<stop stop-color="#0057FF"/>
<stop offset="0.317308" stop-color="#00CFFF"/>
<stop offset="0.625" stop-color="#D9FF70"/>
<stop offset="1" stop-color="white"/>
</linearGradient>
<linearGradient id="paint12_linear_365_22" x1="1.00081" y1="376" x2="190.236" y2="376" gradientUnits="userSpaceOnUse">
<stop stop-color="#0057FF"/>
<stop offset="0.317308" stop-color="#00CFFF"/>
<stop offset="0.625" stop-color="#D9FF70"/>
<stop offset="1" stop-color="white"/>
</linearGradient>
<linearGradient id="paint13_linear_365_22" x1="1.00081" y1="76.0001" x2="190.236" y2="76.0001" gradientUnits="userSpaceOnUse">
<stop stop-color="#0057FF"/>
<stop offset="0.317308" stop-color="#00CFFF"/>
<stop offset="0.625" stop-color="#D9FF70"/>
<stop offset="1" stop-color="white"/>
</linearGradient>
<linearGradient id="paint14_linear_365_22" x1="1.00003" y1="426" x2="263.669" y2="426" gradientUnits="userSpaceOnUse">
<stop stop-color="#0057FF"/>
<stop offset="0.317308" stop-color="#00CFFF"/>
<stop offset="0.625" stop-color="#D9FF70"/>
<stop offset="1" stop-color="white"/>
</linearGradient>
<linearGradient id="paint15_linear_365_22" x1="1.00003" y1="26.0001" x2="263.669" y2="26.0001" gradientUnits="userSpaceOnUse">
<stop stop-color="#0057FF"/>
<stop offset="0.317308" stop-color="#00CFFF"/>
<stop offset="0.625" stop-color="#D9FF70"/>
<stop offset="1" stop-color="white"/>
</linearGradient>
<linearGradient id="paint16_linear_365_22" x1="1.0012" y1="226" x2="383.001" y2="226" gradientUnits="userSpaceOnUse">
<stop stop-color="#0057FF"/>
<stop offset="0.317308" stop-color="#00CFFF"/>
<stop offset="0.625" stop-color="#D9FF70"/>
<stop offset="1" stop-color="white"/>
</linearGradient>
<linearGradient id="paint17_linear_365_22" x1="1.00235" y1="276" x2="318.747" y2="276" gradientUnits="userSpaceOnUse">
<stop stop-color="#0057FF"/>
<stop offset="0.317308" stop-color="#00CFFF"/>
<stop offset="0.625" stop-color="#D9FF70"/>
<stop offset="1" stop-color="white"/>
</linearGradient>
</defs>
</svg>
