<svg preserveAspectRatio="none" width="100%" height="100%" overflow="visible" style="display: block;" viewBox="0 0 33.6671 33.6664" fill="none" xmlns="http://www.w3.org/2000/svg">
<g id="Group">
<path id="Vector" d="M16.5017 7.64974L18.9783 5.17308C21.7667 2.38474 25.415 1.22808 29.2783 1.03974C30.7817 0.96641 31.5317 0.929744 32.135 1.53141C32.7367 2.13474 32.7017 2.88474 32.6267 4.38808C32.4383 8.25141 31.2817 11.8997 28.4933 14.6881L26.0183 17.1664C23.9783 19.2047 23.3983 19.7847 23.8267 21.9964C24.25 23.6864 24.6583 25.3214 23.43 26.5497C21.94 28.0414 20.58 28.0414 19.09 26.5497L7.11833 14.5781C5.62667 13.0881 5.62667 11.7281 7.11833 10.2381C8.34667 9.00974 9.98167 9.41808 11.6717 9.84141C13.8833 10.2697 14.4633 9.68974 16.5017 7.64974Z" stroke="var(--stroke-0, white)" stroke-width="2" stroke-linejoin="round"/>
<path id="Vector_2" d="M25.16 8.49974H25.175" stroke="var(--stroke-0, white)" stroke-width="3" stroke-linecap="round" stroke-linejoin="round"/>
<path id="Vector_3" d="M1 32.6664L9.33333 24.3331M11 32.6664L14.3333 29.3331M1 22.6664L4.33333 19.3331" stroke="var(--stroke-0, white)" stroke-width="2" stroke-linecap="round"/>
</g>
</svg>
