<svg preserveAspectRatio="none" width="100%" height="100%" overflow="visible" style="display: block;" viewBox="0 0 34 34" fill="none" xmlns="http://www.w3.org/2000/svg">
<g id="solar:dollar-outline">
<path id="Vector" fill-rule="evenodd" clip-rule="evenodd" d="M17 3.89583C13.5246 3.89583 10.1915 5.27645 7.73395 7.73395C5.27645 10.1915 3.89583 13.5246 3.89583 17C3.89583 20.4754 5.27645 23.8085 7.73395 26.266C10.1915 28.7236 13.5246 30.1042 17 30.1042C20.4754 30.1042 23.8085 28.7236 26.266 26.266C28.7236 23.8085 30.1042 20.4754 30.1042 17C30.1042 13.5246 28.7236 10.1915 26.266 7.73395C23.8085 5.27645 20.4754 3.89583 17 3.89583ZM1.77083 17C1.77083 8.58925 8.58925 1.77083 17 1.77083C25.4108 1.77083 32.2292 8.58925 32.2292 17C32.2292 25.4108 25.4108 32.2292 17 32.2292C8.58925 32.2292 1.77083 25.4108 1.77083 17ZM17 7.4375C17.2818 7.4375 17.552 7.54944 17.7513 7.7487C17.9506 7.94796 18.0625 8.21821 18.0625 8.5V8.94908C20.3717 9.36275 22.3125 11.0982 22.3125 13.4583C22.3125 13.7401 22.2006 14.0104 22.0013 14.2096C21.802 14.4089 21.5318 14.5208 21.25 14.5208C20.9682 14.5208 20.698 14.4089 20.4987 14.2096C20.2994 14.0104 20.1875 13.7401 20.1875 13.4583C20.1875 12.4978 19.3885 11.4793 18.0625 11.1166V16.0324C20.3717 16.4461 22.3125 18.1815 22.3125 20.5417C22.3125 22.9018 20.3717 24.6372 18.0625 25.0509V25.5C18.0625 25.7818 17.9506 26.052 17.7513 26.2513C17.552 26.4506 17.2818 26.5625 17 26.5625C16.7182 26.5625 16.448 26.4506 16.2487 26.2513C16.0494 26.052 15.9375 25.7818 15.9375 25.5V25.0509C13.6283 24.6372 11.6875 22.9018 11.6875 20.5417C11.6875 20.2599 11.7994 19.9896 11.9987 19.7904C12.198 19.5911 12.4682 19.4792 12.75 19.4792C13.0318 19.4792 13.302 19.5911 13.5013 19.7904C13.7006 19.9896 13.8125 20.2599 13.8125 20.5417C13.8125 21.5022 14.6115 22.5208 15.9375 22.882V17.9676C13.6283 17.5539 11.6875 15.8185 11.6875 13.4583C11.6875 11.0982 13.6283 9.36275 15.9375 8.94908V8.5C15.9375 8.21821 16.0494 7.94796 16.2487 7.7487C16.448 7.54944 16.7182 7.4375 17 7.4375ZM15.9375 11.1166C14.6115 11.4793 13.8125 12.4978 13.8125 13.4583C13.8125 14.4188 14.6115 15.4374 15.9375 15.7987V11.1166ZM18.0625 18.1999V22.8834C19.3885 22.5208 20.1875 21.5036 20.1875 20.5417C20.1875 19.5812 19.3885 18.5612 18.0625 18.1999Z" fill="var(--fill-0, white)"/>
</g>
</svg>
