<svg preserveAspectRatio="none" width="100%" height="100%" overflow="visible" style="display: block;" viewBox="0 0 32.1667 32.1667" fill="none" xmlns="http://www.w3.org/2000/svg">
<g id="Group">
<path id="Vector" d="M16.0833 30.6667C17.9988 30.669 19.8958 30.2929 21.6655 29.5599C23.4351 28.8268 25.0425 27.7514 26.3952 26.3952C27.7514 25.0425 28.8268 23.4351 29.5599 21.6655C30.2929 19.8958 30.669 17.9988 30.6667 16.0833C30.669 14.1679 30.2929 12.2708 29.5599 10.5012C28.8268 8.73156 27.7514 7.1242 26.3952 5.77147C25.0425 4.41534 23.4351 3.33986 21.6655 2.60682C19.8958 1.87379 17.9988 1.49765 16.0833 1.50001C14.1679 1.49765 12.2708 1.87379 10.5012 2.60682C8.73156 3.33986 7.1242 4.41534 5.77147 5.77147C4.41534 7.1242 3.33986 8.73156 2.60682 10.5012C1.87379 12.2708 1.49765 14.1679 1.50001 16.0833C1.49765 17.9988 1.87379 19.8958 2.60682 21.6655C3.33986 23.4351 4.41534 25.0425 5.77147 26.3952C7.1242 27.7514 8.73156 28.8268 10.5012 29.5599C12.2708 30.2929 14.1679 30.669 16.0833 30.6667Z" stroke="var(--stroke-0, white)" stroke-width="3" stroke-linejoin="round"/>
<path id="Vector_2" fill-rule="evenodd" clip-rule="evenodd" d="M16.0833 25.5625C16.5668 25.5625 17.0305 25.3705 17.3723 25.0286C17.7142 24.6867 17.9063 24.2231 17.9063 23.7396C17.9063 23.2561 17.7142 22.7925 17.3723 22.4506C17.0305 22.1087 16.5668 21.9167 16.0833 21.9167C15.5999 21.9167 15.1362 22.1087 14.7943 22.4506C14.4525 22.7925 14.2604 23.2561 14.2604 23.7396C14.2604 24.2231 14.4525 24.6867 14.7943 25.0286C15.1362 25.3705 15.5999 25.5625 16.0833 25.5625Z" fill="var(--fill-0, white)"/>
<path id="Vector_3" d="M16.0833 7.33334V19" stroke="var(--stroke-0, white)" stroke-width="3" stroke-linecap="round" stroke-linejoin="round"/>
</g>
</svg>
