<svg preserveAspectRatio="none" width="100%" height="100%" overflow="visible" style="display: block;" viewBox="0 0 60 60" fill="none" xmlns="http://www.w3.org/2000/svg">
<g id="Frame 2147227723">
<rect width="60" height="60" fill="#191B20"/>
<path id="Vector" d="M30 14.25C21.3023 14.25 14.25 21.3023 14.25 30C14.25 38.6977 21.3023 45.75 30 45.75C38.6977 45.75 45.75 38.6977 45.75 30C45.75 21.3023 38.6977 14.25 30 14.25ZM30 43.0781C22.7789 43.0781 16.9219 37.2211 16.9219 30C16.9219 22.7789 22.7789 16.9219 30 16.9219C37.2211 16.9219 43.0781 22.7789 43.0781 30C43.0781 37.2211 37.2211 43.0781 30 43.0781ZM31.677 29.1844L30.784 28.977V24.2555C32.1199 24.4383 32.9461 25.275 33.0867 26.3016C33.1043 26.4422 33.2238 26.5441 33.3645 26.5441H34.943C35.1082 26.5441 35.2383 26.4 35.2242 26.2348C35.0098 24.0445 33.2063 22.6383 30.798 22.3957V21.2461C30.798 21.0914 30.6715 20.9648 30.5168 20.9648H29.5289C29.3742 20.9648 29.2477 21.0914 29.2477 21.2461V22.4062C26.7586 22.6488 24.8109 24.0234 24.8109 26.5898C24.8109 28.9664 26.5617 30.1125 28.4004 30.552L29.2688 30.7734V35.7902C27.7148 35.5828 26.843 34.7531 26.6637 33.6352C26.6426 33.5016 26.523 33.4031 26.3859 33.4031H24.7617C24.5965 33.4031 24.4664 33.5438 24.4805 33.709C24.6387 35.6426 26.1047 37.4215 29.2336 37.65V38.7539C29.2336 38.9086 29.3602 39.0352 29.5148 39.0352H30.5133C30.668 39.0352 30.7945 38.9086 30.7945 38.7504L30.7875 37.6359C33.5402 37.3934 35.509 35.9203 35.509 33.2766C35.5055 30.8367 33.9551 29.7469 31.677 29.1844ZM29.2652 28.6148C29.0684 28.5586 28.9031 28.5059 28.7379 28.4391C27.5496 28.0102 26.9977 27.3176 26.9977 26.4246C26.9977 25.1484 27.9645 24.4207 29.2652 24.2555V28.6148ZM30.784 35.8008V31.1004C30.893 31.132 30.9914 31.1566 31.0934 31.1777C32.7562 31.684 33.3152 32.3871 33.3152 33.4664C33.3152 34.841 32.2816 35.6672 30.784 35.8008Z" fill="var(--fill-0, white)"/>
</g>
</svg>
