<svg preserveAspectRatio="none" width="100%" height="100%" overflow="visible" style="display: block;" viewBox="0 0 60 60" fill="none" xmlns="http://www.w3.org/2000/svg">
<g id="Frame 2147227723">
<rect width="60" height="60" fill="#191B20"/>
<path id="Vector" d="M45.624 21.5244C45.4643 21.1397 45.1585 20.8339 44.7738 20.6741C44.5845 20.5935 44.3812 20.5507 44.1755 20.5482H36.3027C35.8851 20.5482 35.4847 20.7141 35.1894 21.0093C34.8941 21.3046 34.7282 21.7051 34.7282 22.1227C34.7282 22.5403 34.8941 22.9408 35.1894 23.2361C35.4847 23.5314 35.8851 23.6973 36.3027 23.6973H40.3808L31.5791 32.499L26.3989 27.303C26.2525 27.1554 26.0783 27.0382 25.8865 26.9583C25.6946 26.8784 25.4888 26.8372 25.2809 26.8372C25.0731 26.8372 24.8673 26.8784 24.6754 26.9583C24.4835 27.0382 24.3094 27.1554 24.163 27.303L14.7157 36.7502C14.5682 36.8966 14.451 37.0707 14.3711 37.2626C14.2912 37.4545 14.25 37.6603 14.25 37.8682C14.25 38.076 14.2912 38.2818 14.3711 38.4737C14.451 38.6656 14.5682 38.8397 14.7157 38.9861C14.8621 39.1337 15.0363 39.2508 15.2281 39.3307C15.42 39.4107 15.6258 39.4518 15.8337 39.4518C16.0415 39.4518 16.2473 39.4107 16.4392 39.3307C16.6311 39.2508 16.8052 39.1337 16.9516 38.9861L25.2809 30.641L30.4612 35.837C30.6076 35.9846 30.7817 36.1017 30.9736 36.1816C31.1654 36.2616 31.3712 36.3027 31.5791 36.3027C31.787 36.3027 31.9928 36.2616 32.1846 36.1816C32.3765 36.1017 32.5507 35.9846 32.697 35.837L42.6009 25.9174V29.9954C42.6009 30.413 42.7668 30.8135 43.0621 31.1088C43.3574 31.4041 43.7579 31.57 44.1755 31.57C44.5931 31.57 44.9935 31.4041 45.2888 31.1088C45.5841 30.8135 45.75 30.413 45.75 29.9954V22.1227C45.7475 21.917 45.7047 21.7137 45.624 21.5244Z" fill="var(--fill-0, white)"/>
</g>
</svg>
