<svg width="88" height="32" viewBox="0 0 88 32" fill="none" xmlns="http://www.w3.org/2000/svg">
<path d="M15.7638 5.92871H0V18.1476C4.3759 18.1476 7.92372 21.6954 7.92372 26.0713H15.7638C15.7638 20.5939 12.9555 15.7616 8.70316 12.9348H15.7638V5.92871Z" fill="url(#paint0_linear_102_219)"/>
<path d="M15.7638 5.92871H0V18.1476C4.3759 18.1476 7.92372 21.6954 7.92372 26.0713H15.7638C15.7638 20.5939 12.9555 15.7616 8.70316 12.9348H15.7638V5.92871Z" fill="url(#paint1_linear_102_219)"/>
<rect y="5.92871" width="15.7638" height="7.0067" fill="url(#paint2_radial_102_219)"/>
<path d="M27.2635 23.6673C27.6491 23.7511 28.0179 23.8433 28.3699 23.9439C28.722 24.0277 29.0656 24.1367 29.4009 24.2708V25H22.7876V24.2708C23.1564 24.1031 23.5085 23.9774 23.8437 23.8936C24.179 23.8098 24.5143 23.7343 24.8496 23.6673V8.75602C24.4137 8.6722 24.0281 8.58 23.6929 8.47942C23.3576 8.36207 23.0558 8.24473 22.7876 8.12738V7.39816H25.0004C25.671 7.39816 26.4002 7.36463 27.1881 7.29758C27.9927 7.23052 28.7723 7.197 29.5266 7.197C30.348 7.197 31.1108 7.2892 31.8149 7.4736C32.5357 7.658 33.156 7.95136 33.6756 8.35369C34.1953 8.75602 34.5976 9.26731 34.8826 9.88756C35.1844 10.5078 35.3352 11.2538 35.3352 12.1255C35.3352 13.3493 35.0083 14.3635 34.3546 15.1681C33.7175 15.9728 32.8458 16.5511 31.7394 16.9032C32.4603 18.0431 33.2146 19.1746 34.0025 20.2978C34.7904 21.421 35.6118 22.5357 36.4668 23.6421L37.8246 24.3714V25H34.782L33.8265 24.2959C33.3571 23.7092 32.9296 23.1392 32.5441 22.586C32.1585 22.0161 31.7981 21.4461 31.4628 20.8761C31.1275 20.2894 30.809 19.7027 30.5073 19.116C30.2223 18.5125 29.9289 17.8754 29.6272 17.2049H27.2635V23.6673ZM28.9734 8.50456C28.5711 8.50456 28.2358 8.51294 27.9676 8.52971C27.7161 8.54647 27.4815 8.58 27.2635 8.63029V16.1488H29.074C30.2307 16.1488 31.1443 15.78 31.8149 15.0424C32.5022 14.3048 32.8458 13.3325 32.8458 12.1255C32.8458 10.885 32.4854 9.97138 31.7646 9.38465C31.0437 8.79793 30.1133 8.50456 28.9734 8.50456ZM47.3086 23.2398C47.1745 23.5248 46.9649 23.793 46.68 24.0445C46.395 24.2959 46.0681 24.5139 45.6993 24.6983C45.3305 24.8827 44.9282 25.0251 44.4923 25.1257C44.0565 25.2431 43.6122 25.3017 43.1596 25.3017C42.1705 25.3017 41.2988 25.1509 40.5445 24.8491C39.7901 24.5306 39.1615 24.0864 38.6586 23.5164C38.1556 22.9297 37.7701 22.234 37.5019 21.4293C37.2504 20.6247 37.1247 19.7194 37.1247 18.7136C37.1247 16.5679 37.6192 14.9334 38.6083 13.8103C39.5973 12.6871 40.9971 12.1255 42.8076 12.1255C43.3943 12.1255 43.9726 12.2093 44.5426 12.377C45.1126 12.5278 45.6155 12.7877 46.0513 13.1565C46.5039 13.5253 46.8644 14.0198 47.1326 14.6401C47.4176 15.2436 47.5601 15.9979 47.5601 16.9032C47.5601 17.1881 47.5433 17.4815 47.5098 17.7832C47.493 18.0682 47.4511 18.3784 47.384 18.7136H39.5386C39.5386 19.4177 39.6225 20.0799 39.7901 20.7001C39.9745 21.3036 40.2427 21.8317 40.5948 22.2843C40.9468 22.7369 41.391 23.0973 41.9275 23.3655C42.4639 23.617 43.0925 23.7427 43.8134 23.7427C44.4001 23.7427 44.9952 23.6589 45.5987 23.4913C46.2022 23.3236 46.6548 23.1057 46.9566 22.8375L47.3086 23.2398ZM42.707 13.2319C41.7514 13.2319 41.0222 13.5588 40.5193 14.2126C40.0164 14.8496 39.7147 15.9812 39.6141 17.6072H45.1461C45.1629 17.4564 45.1712 17.3139 45.1712 17.1798C45.188 17.0289 45.1964 16.8864 45.1964 16.7523C45.1964 15.6794 44.9952 14.8245 44.5929 14.1874C44.1906 13.5504 43.5619 13.2319 42.707 13.2319ZM54.9259 6.0906C55.0768 6.0906 55.2528 6.09898 55.454 6.11574C55.6551 6.1325 55.8647 6.15765 56.0826 6.19118C56.3005 6.20794 56.5101 6.24147 56.7112 6.29176C56.9124 6.32529 57.0884 6.3672 57.2393 6.41749C57.189 6.97069 57.1136 7.49036 57.013 7.97651C56.9292 8.44589 56.8202 8.87336 56.6861 9.25893H56.0575L54.9511 7.09642C54.4649 7.09642 54.0458 7.14671 53.6938 7.24729C53.3585 7.34787 53.0735 7.54065 52.8388 7.82563C52.6209 8.11062 52.4533 8.52133 52.3359 9.05776C52.2353 9.5942 52.1851 10.2983 52.1851 11.17V12.4273H55.0768V13.6845H52.1851V23.7679C53.0568 23.8685 53.8614 24.0696 54.599 24.3714V25H48.2624V24.3714C48.782 24.0696 49.3352 23.8685 49.922 23.7679V13.6845H48.0109V13.0307C48.5976 12.6619 49.2347 12.3853 49.922 12.2009V11.3209C49.922 10.2815 50.0477 9.42656 50.2991 8.75602C50.5506 8.06871 50.9026 7.53227 51.3553 7.14671C51.8079 6.74438 52.3359 6.46778 52.9394 6.31691C53.5597 6.16603 54.2218 6.0906 54.9259 6.0906ZM54.9063 18.7136C54.9063 17.6575 55.0404 16.7271 55.3086 15.9225C55.5936 15.1011 55.9959 14.4138 56.5156 13.8606C57.0353 13.2906 57.6555 12.8631 58.3763 12.5781C59.1139 12.2764 59.927 12.1255 60.8155 12.1255C61.8548 12.1255 62.7517 12.2848 63.506 12.6033C64.2604 12.9218 64.8723 13.3744 65.3416 13.9611C65.8278 14.5311 66.1798 15.2184 66.3978 16.0231C66.6324 16.8277 66.7498 17.7246 66.7498 18.7136C66.7498 20.8258 66.2134 22.4519 65.1405 23.5919C64.0676 24.7318 62.6259 25.3017 60.8155 25.3017C59.8096 25.3017 58.9379 25.1509 58.2003 24.8491C57.4627 24.5306 56.8509 24.0864 56.3647 23.5164C55.8786 22.9297 55.5098 22.234 55.2583 21.4293C55.0236 20.6079 54.9063 19.7027 54.9063 18.7136ZM57.3202 18.7136C57.3202 19.468 57.3873 20.1804 57.5214 20.851C57.6723 21.5215 57.8986 22.1083 58.2003 22.6112C58.5188 23.0973 58.9295 23.4829 59.4325 23.7679C59.9354 24.0529 60.5389 24.1953 61.2429 24.1953C62.1482 24.1953 62.8858 23.7511 63.4557 22.8626C64.0425 21.9742 64.3358 20.5912 64.3358 18.7136C64.3358 17.9425 64.2604 17.23 64.1095 16.5763C63.9754 15.9057 63.7575 15.3274 63.4557 14.8412C63.154 14.3383 62.7684 13.9444 62.299 13.6594C61.8297 13.3744 61.2681 13.2319 60.6143 13.2319C59.6252 13.2319 58.829 13.6762 58.2255 14.5646C57.622 15.4531 57.3202 16.8361 57.3202 18.7136ZM72.8786 25H67.2963V24.3714C67.8495 24.1031 68.4027 23.902 68.9559 23.7679V7.85078L67.0449 7.64962V6.99583C67.4807 6.79467 68.0255 6.61865 68.6793 6.46778C69.3331 6.3169 69.9701 6.19118 70.5904 6.0906H71.219V23.7679C71.7722 23.902 72.3254 24.1031 72.8786 24.3714V25ZM81.6992 22.5106C81.6154 22.8794 81.4729 23.2314 81.2717 23.5667C81.0705 23.902 80.8191 24.2037 80.5173 24.4719C80.2324 24.7234 79.8971 24.9246 79.5115 25.0754C79.1427 25.2263 78.7404 25.3017 78.3045 25.3017C76.6449 25.3017 75.4044 24.7737 74.583 23.7176C73.7616 22.6615 73.3509 21.0186 73.3509 18.7891C73.3509 16.6433 73.8705 15.0089 74.9099 13.8857C75.966 12.7625 77.3825 12.2009 79.1595 12.2009C79.7797 12.2009 80.2659 12.2345 80.6179 12.3015C80.97 12.3518 81.3555 12.4524 81.7746 12.6033V7.85078L79.8636 7.64962V6.99583C80.3497 6.79467 80.9113 6.61865 81.5483 6.46778C82.2021 6.3169 82.8223 6.19118 83.4091 6.0906H84.0377V23.5667L85.6973 23.7679V24.2959C85.2112 24.5306 84.7083 24.7318 84.1886 24.8994C83.6689 25.0671 83.1576 25.1844 82.6547 25.2515H82.0261L81.7998 22.5106H81.6992ZM78.8074 23.7427C79.6289 23.7427 80.2826 23.4829 80.7688 22.9632C81.2549 22.4435 81.5902 21.7395 81.7746 20.851V13.76C81.4896 13.5923 81.1544 13.475 80.7688 13.4079C80.3832 13.3409 79.8887 13.3073 79.2852 13.3073C78.1453 13.3073 77.2736 13.8103 76.6701 14.8161C76.0666 15.8051 75.7648 17.1295 75.7648 18.7891C75.7648 19.4764 75.8235 20.1218 75.9409 20.7253C76.0582 21.312 76.2426 21.8317 76.4941 22.2843C76.7455 22.7369 77.0556 23.0973 77.4244 23.3655C77.81 23.617 78.271 23.7427 78.8074 23.7427Z" fill="white"/>
<defs>
<linearGradient id="paint0_linear_102_219" x1="-0.701593" y1="17.25" x2="14.1523" y2="22.3146" gradientUnits="userSpaceOnUse">
<stop stop-color="#002F89"/>
<stop offset="0.486282" stop-color="#0057FF"/>
<stop offset="1" stop-color="#04CFFF"/>
</linearGradient>
<linearGradient id="paint1_linear_102_219" x1="-0.701593" y1="17.25" x2="14.1523" y2="22.3146" gradientUnits="userSpaceOnUse">
<stop stop-color="#000B1F"/>
<stop offset="0.486282" stop-color="#0057FF"/>
<stop offset="1" stop-color="#04CFFF"/>
</linearGradient>
<radialGradient id="paint2_radial_102_219" cx="0" cy="0" r="1" gradientUnits="userSpaceOnUse" gradientTransform="translate(-7.61561 3.90987) rotate(22.5878) scale(23.4979 26.4802)">
<stop stop-color="#D8FF70"/>
<stop offset="0.5" stop-color="#04CFFF"/>
<stop offset="1" stop-color="#0057FF"/>
</radialGradient>
</defs>
</svg>
